<svg width="17" height="17" viewBox="0 0 17 17" fill="none" xmlns="http://www.w3.org/2000/svg">
<path d="M12.75 3.4H17V5.1H15.3V16.15C15.3 16.3754 15.2104 16.5916 15.051 16.751C14.8916 16.9104 14.6754 17 14.45 17H2.55C2.32457 17 2.10837 16.9104 1.94896 16.751C1.78955 16.5916 1.7 16.3754 1.7 16.15V5.1H0V3.4H4.25V0.85C4.25 0.624566 4.33955 0.408365 4.49896 0.248959C4.65837 0.0895533 4.87457 0 5.1 0H11.9C12.1254 0 12.3416 0.0895533 12.501 0.248959C12.6604 0.408365 12.75 0.624566 12.75 0.85V3.4ZM13.6 5.1H3.4V15.3H13.6V5.1ZM5.95 1.7V3.4H11.05V1.7H5.95Z" fill="#EB5757"/>
</svg>
