<svg width="16" height="17" viewBox="0 0 16 17" fill="none" xmlns="http://www.w3.org/2000/svg">
<path d="M16 14.2326H0V12.6512H0.8V7.14079C0.8 3.19679 4.024 0 8 0C11.976 0 15.2 3.19679 15.2 7.14079V12.6512H16V14.2326ZM2.4 12.6512H13.6V7.14079C13.6 4.07051 11.0928 1.5814 8 1.5814C4.9072 1.5814 2.4 4.07051 2.4 7.14079V12.6512ZM6 15.0233H10C10 15.5475 9.78929 16.0503 9.41421 16.421C9.03914 16.7917 8.53043 17 8 17C7.46957 17 6.96086 16.7917 6.58579 16.421C6.21071 16.0503 6 15.5475 6 15.0233Z" fill="#828282"/>
</svg>
