<svg width="13" height="13" viewBox="0 0 13 13" fill="none" xmlns="http://www.w3.org/2000/svg">
<path d="M9.75 1.3H12.35C12.5224 1.3 12.6877 1.36848 12.8096 1.49038C12.9315 1.61228 13 1.77761 13 1.95V12.35C13 12.5224 12.9315 12.6877 12.8096 12.8096C12.6877 12.9315 12.5224 13 12.35 13H0.65C0.477609 13 0.312279 12.9315 0.190381 12.8096C0.0684819 12.6877 0 12.5224 0 12.35V1.95C0 1.77761 0.0684819 1.61228 0.190381 1.49038C0.312279 1.36848 0.477609 1.3 0.65 1.3H3.25V0H4.55V1.3H8.45V0H9.75V1.3ZM8.45 2.6H4.55V3.9H3.25V2.6H1.3V5.2H11.7V2.6H9.75V3.9H8.45V2.6ZM11.7 6.5H1.3V11.7H11.7V6.5Z" fill="#828282"/>
</svg>
