<svg width="41" height="41" viewBox="0 0 41 41" fill="none" xmlns="http://www.w3.org/2000/svg">
<path d="M20.5 41C9.17785 41 0 31.8221 0 20.5C0 9.17785 9.17785 0 20.5 0C31.8221 0 41 9.17785 41 20.5C41 31.8221 31.8221 41 20.5 41ZM20.5 36.9C24.8496 36.9 29.021 35.1721 32.0965 32.0965C35.1721 29.021 36.9 24.8496 36.9 20.5C36.9 16.1504 35.1721 11.979 32.0965 8.90345C29.021 5.82785 24.8496 4.1 20.5 4.1C16.1504 4.1 11.979 5.82785 8.90345 8.90345C5.82785 11.979 4.1 16.1504 4.1 20.5C4.1 24.8496 5.82785 29.021 8.90345 32.0965C11.979 35.1721 16.1504 36.9 20.5 36.9ZM18.4562 28.7L9.758 20.0019L12.6567 17.1032L18.4562 22.9026L30.051 11.3057L32.9517 14.2044L18.4562 28.7Z" fill="#219653"/>
</svg>
