<svg width="12" height="11" viewBox="0 0 12 11" fill="none" xmlns="http://www.w3.org/2000/svg">
<path d="M8.04758e-07 3.663C-0.000315499 3.18157 0.0926116 2.70481 0.273461 2.26001C0.45431 1.81521 0.719529 1.41111 1.05393 1.07086C1.38833 0.730604 1.78535 0.460878 2.22224 0.277125C2.65913 0.0933722 3.12732 -0.00079873 3.6 5.10293e-06H8.4C10.3878 5.10293e-06 12 1.64695 12 3.663V11H3.6C1.6122 11 8.04758e-07 9.35306 8.04758e-07 7.337V3.663ZM10.8 9.77778V3.663C10.7984 3.01553 10.5449 2.39509 10.0951 1.9376C9.64524 1.48011 9.0357 1.22287 8.4 1.22223H3.6C3.28491 1.22142 2.97276 1.28398 2.68146 1.40631C2.39016 1.52864 2.12543 1.70834 1.90246 1.9351C1.67949 2.16186 1.50266 2.43122 1.38212 2.72773C1.26157 3.02424 1.19968 3.34208 1.2 3.663V7.337C1.20159 7.98447 1.45507 8.60491 1.90492 9.0624C2.35476 9.51989 2.9643 9.77713 3.6 9.77778H10.8ZM7.2 4.88889H8.4V6.11111H7.2V4.88889ZM3.6 4.88889H4.8V6.11111H3.6V4.88889Z" fill="#828282"/>
</svg>
