<svg width="15" height="16" viewBox="0 0 15 16" fill="none" xmlns="http://www.w3.org/2000/svg">
<path d="M0.644968 1.31837L10.072 0.00371085C10.1252 -0.0037425 10.1794 6.03864e-05 10.231 0.0148618C10.2826 0.0296631 10.3303 0.0551171 10.3709 0.0894986C10.4115 0.12388 10.444 0.166386 10.4664 0.214135C10.4887 0.261884 10.5002 0.31376 10.5002 0.366249V15.6339C10.5002 15.6863 10.4887 15.7381 10.4664 15.7858C10.4441 15.8335 10.4116 15.8759 10.3711 15.9103C10.3306 15.9447 10.283 15.9701 10.2315 15.985C10.18 15.9998 10.1259 16.0037 10.0727 15.9964L0.644218 14.6817C0.465441 14.6569 0.301854 14.5698 0.183507 14.4366C0.0651606 14.3034 1.73284e-06 14.133 0 13.9567V2.04344C1.73284e-06 1.86709 0.0651606 1.69666 0.183507 1.56346C0.301854 1.43026 0.465441 1.34323 0.644218 1.31837H0.644968ZM1.50067 2.67917V13.3209L9.0003 14.3675V1.63257L1.50067 2.67917ZM11.2502 13.1269H13.5001V2.87325H11.2502V1.40845H14.25C14.4489 1.40845 14.6397 1.48562 14.7803 1.62297C14.921 1.76032 15 1.94661 15 2.14085V13.8593C15 14.0535 14.921 14.2398 14.7803 14.3771C14.6397 14.5145 14.4489 14.5917 14.25 14.5917H11.2502V13.1269ZM6.15044 8.00005L8.25034 10.9297H6.45043L5.25049 9.25539L4.05055 10.9297H2.25064L4.35053 8.00005L2.25064 5.07045H4.05055L5.25049 6.74472L6.45043 5.07045H8.25034L6.15044 8.00005Z" fill="#219653"/>
</svg>
