<svg width="18" height="17" viewBox="0 0 18 17" fill="none" xmlns="http://www.w3.org/2000/svg">
<path d="M2.77761 3.63896L0.176356 1.13392L1.35345 0L17.8236 15.8669L16.6465 17L13.8931 14.3475C12.43 15.2415 10.7326 15.7149 9 15.7122C4.51456 15.7122 0.78279 12.603 0 8.5C0.357729 6.63341 1.33235 4.92827 2.77845 3.63896H2.77761ZM11.2935 11.8433L10.0756 10.6701C9.6098 10.8848 9.08633 10.955 8.57735 10.871C8.06838 10.7871 7.59897 10.5531 7.23383 10.2014C6.8687 9.84964 6.62582 9.39745 6.53868 8.90714C6.45154 8.41684 6.52443 7.91257 6.7473 7.46384L5.52944 6.29066C5.00013 7.06115 4.76351 7.98419 4.85964 8.90347C4.95577 9.82276 5.37875 10.6818 6.05694 11.3351C6.73514 11.9884 7.62688 12.3959 8.58116 12.4885C9.53545 12.5811 10.4936 12.3532 11.2935 11.8433ZM5.65089 1.89681C6.68823 1.50415 7.81874 1.28778 9 1.28778C13.4854 1.28778 17.2172 4.39705 18 8.5C17.7451 9.83482 17.1722 11.0945 16.3263 12.1798L13.1153 9.08659C13.2106 8.46764 13.1542 7.83576 12.9505 7.24159C12.7468 6.64742 12.4014 6.10748 11.9421 5.66501C11.4828 5.22255 10.9223 4.88986 10.3055 4.69361C9.6887 4.49736 9.03276 4.443 8.39024 4.53488L5.65089 1.89761V1.89681Z" fill="#828282"/>
</svg>
