<svg width="11" height="12" viewBox="0 0 11 12" fill="none" xmlns="http://www.w3.org/2000/svg">
<path d="M10.4054 0C10.5631 0 10.7143 0.0602039 10.8258 0.167368C10.9374 0.274531 11 0.419876 11 0.571429V3.42857C11 3.58012 10.9374 3.72547 10.8258 3.83263C10.7143 3.9398 10.5631 4 10.4054 4H7.43243V11.4286C7.43243 11.5801 7.36979 11.7255 7.25828 11.8326C7.14677 11.9398 6.99553 12 6.83784 12H4.45946C4.30176 12 4.15053 11.9398 4.03902 11.8326C3.92751 11.7255 3.86486 11.5801 3.86486 11.4286V4H0.594595C0.436898 4 0.285661 3.9398 0.174153 3.83263C0.0626446 3.72547 0 3.58012 0 3.42857V2.06743C5.89532e-05 1.96134 0.0308494 1.85735 0.088923 1.76713C0.146997 1.6769 0.23006 1.60399 0.328811 1.55657L3.56757 0H10.4054ZM7.43243 1.14286H3.84822L1.18919 2.42057V2.85714H5.05405V10.8571H6.24324V2.85714H7.43243V1.14286ZM9.81081 1.14286H8.62162V2.85714H9.81081V1.14286Z" fill="#828282"/>
</svg>
