<svg width="13" height="13" viewBox="0 0 13 13" fill="none" xmlns="http://www.w3.org/2000/svg">
<path d="M13 9.34839C12.9997 10.2006 12.6959 11.0271 12.1388 11.6912C11.5817 12.3552 10.8047 12.817 9.93655 13L9.52185 11.8073C9.9016 11.7473 10.2628 11.6074 10.5793 11.3975C10.8958 11.1876 11.1598 10.9129 11.3523 10.5934H9.75C9.40522 10.5934 9.07456 10.4621 8.83076 10.2284C8.58696 9.99467 8.45 9.67767 8.45 9.34714V6.85457C8.45 6.52403 8.58696 6.20704 8.83076 5.97331C9.07456 5.73959 9.40522 5.60828 9.75 5.60828H11.6597C11.5011 4.40368 10.8894 3.29597 9.93943 2.49299C8.98946 1.69001 7.76649 1.24696 6.5 1.24696C5.23351 1.24696 4.01054 1.69001 3.06057 2.49299C2.1106 3.29597 1.49892 4.40368 1.3403 5.60828H3.25C3.59478 5.60828 3.92544 5.73959 4.16924 5.97331C4.41304 6.20704 4.55 6.52403 4.55 6.85457V9.34714C4.55 9.67767 4.41304 9.99467 4.16924 10.2284C3.92544 10.4621 3.59478 10.5934 3.25 10.5934H1.3C0.955218 10.5934 0.624558 10.4621 0.380761 10.2284C0.136964 9.99467 0 9.67767 0 9.34714V6.23143C0 2.78981 2.91005 0 6.5 0C10.0899 0 13 2.78981 13 6.23143V9.34839ZM11.7 9.34714V6.85457H9.75V9.34714H11.7ZM1.3 6.85457V9.34714H3.25V6.85457H1.3Z" fill="#828282"/>
</svg>
