<svg width="17" height="17" viewBox="0 0 17 17" fill="none" xmlns="http://www.w3.org/2000/svg">
<path d="M4.72222 0.973373H17V2.86686H4.72222V0.973373ZM1.41667 3.34024C1.04094 3.34024 0.680609 3.19062 0.414932 2.92429C0.149256 2.65797 0 2.29676 0 1.92012C0 1.54348 0.149256 1.18227 0.414932 0.915943C0.680609 0.649619 1.04094 0.5 1.41667 0.5C1.79239 0.5 2.15272 0.649619 2.4184 0.915943C2.68408 1.18227 2.83333 1.54348 2.83333 1.92012C2.83333 2.29676 2.68408 2.65797 2.4184 2.92429C2.15272 3.19062 1.79239 3.34024 1.41667 3.34024ZM1.41667 9.96746C1.04094 9.96746 0.680609 9.81784 0.414932 9.55151C0.149256 9.28519 0 8.92398 0 8.54734C0 8.1707 0.149256 7.80949 0.414932 7.54316C0.680609 7.27684 1.04094 7.12722 1.41667 7.12722C1.79239 7.12722 2.15272 7.27684 2.4184 7.54316C2.68408 7.80949 2.83333 8.1707 2.83333 8.54734C2.83333 8.92398 2.68408 9.28519 2.4184 9.55151C2.15272 9.81784 1.79239 9.96746 1.41667 9.96746ZM1.41667 16.5C1.04094 16.5 0.680609 16.3504 0.414932 16.0841C0.149256 15.8177 0 15.4565 0 15.0799C0 14.7032 0.149256 14.342 0.414932 14.0757C0.680609 13.8094 1.04094 13.6598 1.41667 13.6598C1.79239 13.6598 2.15272 13.8094 2.4184 14.0757C2.68408 14.342 2.83333 14.7032 2.83333 15.0799C2.83333 15.4565 2.68408 15.8177 2.4184 16.0841C2.15272 16.3504 1.79239 16.5 1.41667 16.5ZM4.72222 7.60059H17V9.49408H4.72222V7.60059ZM4.72222 14.2278H17V16.1213H4.72222V14.2278Z" fill="#1550A2"/>
</svg>
