<svg width="12" height="17" viewBox="0 0 12 17" fill="none" xmlns="http://www.w3.org/2000/svg">
<path d="M12 17H10.5V15.381C10.5 14.7369 10.2629 14.1191 9.84099 13.6637C9.41903 13.2082 8.84674 12.9524 8.25 12.9524H3.75C3.15326 12.9524 2.58097 13.2082 2.15901 13.6637C1.73705 14.1191 1.5 14.7369 1.5 15.381V17H0V15.381C0 14.3075 0.395088 13.2779 1.09835 12.5189C1.80161 11.7598 2.75544 11.3333 3.75 11.3333H8.25C9.24456 11.3333 10.1984 11.7598 10.9017 12.5189C11.6049 13.2779 12 14.3075 12 15.381V17ZM6 9.71429C5.40905 9.71429 4.82389 9.58865 4.27792 9.34456C3.73196 9.10046 3.23588 8.74269 2.81802 8.29166C2.40016 7.84063 2.06869 7.30519 1.84254 6.71589C1.6164 6.1266 1.5 5.49499 1.5 4.85714C1.5 4.21929 1.6164 3.58769 1.84254 2.99839C2.06869 2.4091 2.40016 1.87365 2.81802 1.42262C3.23588 0.971597 3.73196 0.613822 4.27792 0.369728C4.82389 0.125634 5.40905 -9.50469e-09 6 0C7.19347 1.91956e-08 8.33807 0.511733 9.18198 1.42262C10.0259 2.33352 10.5 3.56895 10.5 4.85714C10.5 6.14534 10.0259 7.38077 9.18198 8.29166C8.33807 9.20255 7.19347 9.71429 6 9.71429ZM6 8.09524C6.79565 8.09524 7.55871 7.75408 8.12132 7.14682C8.68393 6.53956 9 5.71594 9 4.85714C9 3.99835 8.68393 3.17472 8.12132 2.56746C7.55871 1.9602 6.79565 1.61905 6 1.61905C5.20435 1.61905 4.44129 1.9602 3.87868 2.56746C3.31607 3.17472 3 3.99835 3 4.85714C3 5.71594 3.31607 6.53956 3.87868 7.14682C4.44129 7.75408 5.20435 8.09524 6 8.09524Z" fill="#828282"/>
</svg>
