<svg width="19" height="18" viewBox="0 0 19 18" fill="none" xmlns="http://www.w3.org/2000/svg">
<path d="M17.2727 9H15.5455V3.8142L8.69855 10.2042L1.72727 3.7944V14.4H10.3636V16.2H0.863636C0.634586 16.2 0.414916 16.1052 0.252953 15.9364C0.09099 15.7676 0 15.5387 0 15.3V0.9C0 0.661305 0.09099 0.432387 0.252953 0.263604C0.414916 0.0948211 0.634586 0 0.863636 0H16.4091C16.6381 0 16.8578 0.0948211 17.0198 0.263604C17.1817 0.432387 17.2727 0.661305 17.2727 0.9V9ZM2.16859 1.8L8.68905 7.7958L15.1154 1.8H2.16859ZM16.4091 13.5H19V15.3H16.4091V18H14.6818V15.3H12.0909V13.5H14.6818V10.8H16.4091V13.5Z" fill="#1550A2"/>
</svg>
