<svg width="13" height="11" viewBox="0 0 13 11" fill="none" xmlns="http://www.w3.org/2000/svg">
<path d="M0.65 0H12.35C12.5224 0 12.6877 0.0643847 12.8096 0.17899C12.9315 0.293596 13 0.449034 13 0.611111V10.3889C13 10.551 12.9315 10.7064 12.8096 10.821C12.6877 10.9356 12.5224 11 12.35 11H0.65C0.477609 11 0.312279 10.9356 0.190381 10.821C0.0684819 10.7064 0 10.551 0 10.3889V0.611111C0 0.449034 0.0684819 0.293596 0.190381 0.17899C0.312279 0.0643847 0.477609 0 0.65 0ZM11.7 6.72222H9.4796C9.22669 7.26742 8.81006 7.73138 8.2808 8.05723C7.75154 8.38307 7.13264 8.55663 6.5 8.55663C5.86736 8.55663 5.24846 8.38307 4.7192 8.05723C4.18994 7.73138 3.77331 7.26742 3.5204 6.72222H1.3V9.77778H11.7V6.72222ZM11.7 5.5V1.22222H1.3V5.5H4.55C4.55 5.98623 4.75545 6.45255 5.12114 6.79636C5.48684 7.14018 5.98283 7.33333 6.5 7.33333C7.01717 7.33333 7.51316 7.14018 7.87886 6.79636C8.24455 6.45255 8.45 5.98623 8.45 5.5H11.7Z" fill="white"/>
</svg>
