<svg width="11" height="13" viewBox="0 0 11 13" fill="none" xmlns="http://www.w3.org/2000/svg">
<path d="M6.47059 7.475V3.9C6.47059 3.21044 6.1979 2.54912 5.71251 2.06152C5.22712 1.57393 4.5688 1.3 3.88235 1.3C3.19591 1.3 2.53758 1.57393 2.05219 2.06152C1.56681 2.54912 1.29412 3.21044 1.29412 3.9V7.475C1.29412 8.59554 1.73724 9.67018 2.52599 10.4625C3.31475 11.2549 4.38453 11.7 5.5 11.7C6.61547 11.7 7.68525 11.2549 8.47401 10.4625C9.26276 9.67018 9.70588 8.59554 9.70588 7.475V1.3H11V7.475C11 8.94032 10.4205 10.3456 9.38909 11.3818C8.35764 12.4179 6.95869 13 5.5 13C4.04131 13 2.64236 12.4179 1.61091 11.3818C0.579463 10.3456 0 8.94032 0 7.475V3.9C0 2.86566 0.409033 1.87368 1.13712 1.14228C1.8652 0.410892 2.85269 0 3.88235 0C4.91202 0 5.89951 0.410892 6.62759 1.14228C7.35567 1.87368 7.76471 2.86566 7.76471 3.9V7.475C7.76471 8.07837 7.5261 8.65702 7.10139 9.08367C6.67667 9.51031 6.10064 9.75 5.5 9.75C4.89936 9.75 4.32333 9.51031 3.89861 9.08367C3.4739 8.65702 3.23529 8.07837 3.23529 7.475V3.9H4.52941V7.475C4.52941 7.73359 4.63167 7.98158 4.81369 8.16443C4.99571 8.34728 5.24258 8.45 5.5 8.45C5.75742 8.45 6.00429 8.34728 6.18631 8.16443C6.36833 7.98158 6.47059 7.73359 6.47059 7.475Z" fill="#828282"/>
</svg>
