<svg width="129" height="26" viewBox="0 0 129 26" fill="none" xmlns="http://www.w3.org/2000/svg">
<g clip-path="url(#clip0_6_4473)">
<mask id="mask0_6_4473" style="mask-type:luminance" maskUnits="userSpaceOnUse" x="0" y="0" width="129" height="26">
<path d="M129 0H0V26H129V0Z" fill="white"/>
</mask>
<g mask="url(#mask0_6_4473)">
<path d="M16.7821 19.8078C15.3365 21.2325 13.4356 21.9436 11.5364 21.9436C9.637 21.9436 7.73737 21.2312 6.2902 19.8062C4.84324 18.3813 4.11953 16.5126 4.11953 14.6424C4.11953 12.7722 4.84324 10.9019 6.2902 9.47707V9.47561C7.73608 8.05206 9.637 7.33971 11.5364 7.34117C13.4356 7.34273 15.3365 8.05351 16.7821 9.47707C19.6735 12.3255 19.6749 16.9605 16.7821 19.8078ZM19.6956 6.60864C17.4456 4.3918 14.4906 3.28499 11.5359 3.28499C8.61059 3.28499 5.6853 4.36863 3.44548 6.5386L3.3761 6.60864L3.34059 6.64187L3.30517 6.67702C2.19999 7.78384 1.37266 9.05815 0.821403 10.4183C-0.83622 14.5099 0.0148564 19.3668 3.3761 22.6761C5.62456 24.8901 8.58092 25.9986 11.5359 26C14.4922 25.9986 17.4471 24.8901 19.6956 22.6761C24.1958 18.2454 24.1958 11.0378 19.6956 6.60864Z" fill="#1A2D67"/>
<path d="M43.6562 3.82568H39.2782C38.8887 3.82568 38.5179 3.98828 38.2576 4.27286L18.8818 25.4591H23.2602C23.6495 25.4591 24.0203 25.2965 24.2808 25.0116L40.6624 7.09905V14.6423H43.4093C44.1677 14.6423 44.7825 14.037 44.7825 13.2903V3.82568H43.6562Z" fill="#1A2D67"/>
<path d="M66.0711 3.82568H61.878C61.4889 3.82568 61.1175 3.98828 60.8568 4.27286L51.6484 14.3421V3.82568H48.8942C48.14 3.82568 47.5288 4.4225 47.5288 5.15869V25.4591H51.6484V14.9426L60.8568 25.0116C61.1175 25.2965 61.4889 25.4591 61.878 25.4591H66.0711L56.1789 14.6423L66.0711 3.82568Z" fill="#1A2D67"/>
<path d="M35.2175 16.9261C40.3623 18.7018 42.4439 20.7517 44.2475 25.8172C44.3505 26.1053 44.7817 26.0344 44.7817 25.7293V17.7521C44.7817 17.0054 44.1669 16.4001 43.4089 16.4001H35.3064C34.9963 16.4001 34.9249 16.8251 35.2175 16.9261Z" fill="#1A2D67"/>
<path d="M79.808 13.2342C79.808 13.3742 79.6978 13.4475 79.5892 13.4475C79.4946 13.4475 79.4188 13.3936 79.3866 13.3033C77.5827 8.23831 75.465 6.1528 70.3205 4.37737C70.1921 4.33294 70.1631 4.22101 70.1776 4.13869C70.1916 4.05732 70.256 3.96227 70.3904 3.96227H78.4927C79.2183 3.96227 79.808 4.54319 79.808 5.25726V13.2342ZM75.5445 0.0470428C70.994 0.0470428 67.3052 3.67903 67.3052 8.15948C67.3052 12.6399 70.994 16.2721 75.5445 16.2721C80.0955 16.2721 83.7844 12.6399 83.7844 8.15948C83.7844 3.67903 80.0955 0.0470428 75.5445 0.0470428Z" fill="#3555AE"/>
<path d="M89.807 17.0421V22.524L93.9463 17.0421H95.4604V25.4573H93.7146V19.9396L89.5264 25.4573H88.0488V17.0421H89.807Z" fill="#1A2D67"/>
<path d="M101.846 20.3784C102.087 20.1975 102.207 19.9396 102.207 19.6029C102.207 19.2581 102.087 18.9979 101.846 18.8216C101.607 18.6452 101.279 18.5569 100.864 18.5569H99.0079V20.6487H100.864C101.279 20.6487 101.607 20.5587 101.846 20.3784ZM100.986 17.0421C101.45 17.0421 101.867 17.104 102.237 17.2281C102.608 17.3529 102.921 17.5267 103.178 17.7514C103.434 17.9759 103.629 18.2442 103.764 18.5569C103.898 18.8692 103.965 19.21 103.965 19.5785C103.965 19.9472 103.898 20.2879 103.764 20.6006C103.629 20.9134 103.434 21.1817 103.178 21.4062C102.921 21.6303 102.608 21.8067 102.237 21.935C101.867 22.0633 101.45 22.1271 100.986 22.1271H99.0079V25.4573H97.2498V17.0421H100.986Z" fill="#1A2D67"/>
<path d="M106.875 17.0421V20.3604L110.026 17.0421H112.174L108.548 20.9012L112.797 25.4573H110.551L106.875 21.5744V25.4573H105.117V17.0421H106.875Z" fill="#1A2D67"/>
<path d="M114.382 25.5715C114.126 25.5354 113.929 25.4735 113.79 25.3855V23.8585C113.953 23.9464 114.126 24.007 114.309 24.039C114.492 24.0706 114.649 24.0867 114.779 24.0867C114.95 24.0867 115.105 24.0706 115.243 24.039C115.381 24.007 115.508 23.9464 115.622 23.8585C115.736 23.77 115.848 23.6505 115.958 23.4978C116.067 23.3452 116.179 23.1531 116.293 22.9206L113.058 17.0423H114.999L117.161 21.1777L119.053 17.0423H120.921L117.771 23.6299C117.576 24.0468 117.362 24.3854 117.13 24.6459C116.898 24.9065 116.661 25.1087 116.422 25.2529C116.181 25.3971 115.947 25.4953 115.719 25.5476C115.492 25.5997 115.28 25.6256 115.084 25.6256C114.873 25.6256 114.639 25.6078 114.382 25.5715Z" fill="#1A2D67"/>
<path d="M128.836 18.5931H126.125V25.4574H124.366V18.5931H121.668V17.0421H128.836V18.5931Z" fill="#1A2D67"/>
</g>
</g>
<defs>
<clipPath id="clip0_6_4473">
<rect width="129" height="26" fill="white"/>
</clipPath>
</defs>
</svg>
