<?xml version="1.0" encoding="utf-8"?><svg xmlns="http://www.w3.org/2000/svg" xmlns:xlink="http://www.w3.org/1999/xlink"><symbol viewBox="0 0 14 8" id="arrow-down" xmlns="http://www.w3.org/2000/svg"><path d="M7.243 4.95L12.193 0l1.414 1.414-6.364 6.364L.879 1.414 2.293 0l4.95 4.95z"/></symbol><symbol viewBox="0 0 17 19" id="arrows" xmlns="http://www.w3.org/2000/svg"><path d="M12.325 9.548L17 14.274 12.325 19l-1.335-1.35 2.395-2.422H.945V13.32h12.44l-2.395-2.421 1.335-1.35zM4.675 0L6.01 1.35 3.615 3.771h12.44v1.91H3.616L6.01 8.102l-1.335 1.35L0 4.726 4.675 0z"/></symbol><symbol viewBox="0 0 16 17" id="bell" xmlns="http://www.w3.org/2000/svg"><path d="M16 14.233H0V12.65h.8v-5.51C.8 3.197 4.024 0 8 0s7.2 3.197 7.2 7.14v5.511h.8v1.582zM2.4 12.65h11.2v-5.51c0-3.07-2.507-5.56-5.6-5.56-3.093 0-5.6 2.49-5.6 5.56v5.51zM6 15.023h4c0 .524-.21 1.027-.586 1.398a2.012 2.012 0 0 1-2.828 0A1.965 1.965 0 0 1 6 15.023z"/></symbol><symbol viewBox="0 0 20 21" id="cash" xmlns="http://www.w3.org/2000/svg"><path d="M10 20.5c-5.523 0-10-4.477-10-10S4.477.5 10 .5s10 4.477 10 10-4.477 10-10 10zm0-2a8 8 0 1 0 0-16.001A8 8 0 0 0 10 18.5zm-3.5-6H12a.5.5 0 0 0 0-1H8a2.5 2.5 0 0 1 0-5h1v-2h2v2h2.5v2H8a.5.5 0 1 0 0 1h4a2.5 2.5 0 0 1 0 5h-1v2H9v-2H6.5v-2z"/></symbol><symbol viewBox="0 0 19 19" id="chart" xmlns="http://www.w3.org/2000/svg"><path d="M2 .5v16h16v2H0V.5h2zm15.293 3.293l1.414 1.414L13 10.914l-3-2.999-4.293 4.292-1.414-1.414L10 5.086l3 2.999 4.293-4.292z"/></symbol><symbol viewBox="0 0 20 19" id="directory" xmlns="http://www.w3.org/2000/svg"><path d="M16 4.5h3a1 1 0 0 1 1 1v12a1 1 0 0 1-1 1H1a1 1 0 0 1-1-1v-16a1 1 0 0 1 1-1h15v4zm-14 2v10h16v-10H2zm0-4v2h12v-2H2zm11 8h3v2h-3v-2z"/></symbol><symbol viewBox="0 0 20 18" id="folder" xmlns="http://www.w3.org/2000/svg"><path d="M2 2v14h16V4H9.586l-2-2H2zm8.414 0H19a1 1 0 0 1 1 1v14a1 1 0 0 1-1 1H1a1 1 0 0 1-1-1V1a1 1 0 0 1 1-1h7.414l2 2z"/></symbol><symbol viewBox="0 0 11 12" id="hammer" xmlns="http://www.w3.org/2000/svg"><path d="M10.405 0c.158 0 .31.06.42.167A.56.56 0 0 1 11 .571V3.43a.56.56 0 0 1-.174.404.607.607 0 0 1-.42.167H7.431v7.429a.56.56 0 0 1-.174.404.607.607 0 0 1-.42.167H4.459a.607.607 0 0 1-.42-.167.56.56 0 0 1-.174-.404V4H.595a.607.607 0 0 1-.42-.167A.56.56 0 0 1 0 3.429V2.067c0-.106.03-.21.089-.3a.587.587 0 0 1 .24-.21L3.568 0h6.837zM7.432 1.143H3.848L1.19 2.42v.436h3.865v8h1.19v-8h1.188V1.143zm2.379 0H8.62v1.714h1.19V1.143z"/></symbol><symbol viewBox="0 0 13 13" id="headphones" xmlns="http://www.w3.org/2000/svg"><path d="M13 9.348c0 .853-.304 1.68-.861 2.343A3.929 3.929 0 0 1 9.937 13l-.415-1.193c.38-.06.74-.2 1.057-.41.317-.21.58-.484.773-.804H9.75a1.33 1.33 0 0 1-.92-.365 1.22 1.22 0 0 1-.38-.88V6.854c0-.331.137-.648.38-.882.245-.233.575-.365.92-.365h1.91a4.926 4.926 0 0 0-1.72-3.115A5.332 5.332 0 0 0 6.5 1.247c-1.266 0-2.49.443-3.44 1.246a4.926 4.926 0 0 0-1.72 3.115h1.91c.345 0 .675.132.92.365.243.234.38.551.38.882v2.492c0 .33-.137.648-.38.881a1.33 1.33 0 0 1-.92.365H1.3a1.33 1.33 0 0 1-.92-.365 1.22 1.22 0 0 1-.38-.88V6.23C0 2.79 2.91 0 6.5 0S13 2.79 13 6.231v3.117zm-1.3 0V6.854H9.75v2.492h1.95zM1.3 6.854v2.492h1.95V6.855H1.3z"/></symbol><symbol viewBox="0 0 17 17" id="list" xmlns="http://www.w3.org/2000/svg"><path d="M4.722.973H17v1.894H4.722V.973zM1.417 3.34A1.415 1.415 0 0 1 0 1.92 1.422 1.422 0 0 1 1.417.5a1.415 1.415 0 0 1 1.416 1.42 1.422 1.422 0 0 1-1.416 1.42zm0 6.627A1.415 1.415 0 0 1 0 8.547a1.422 1.422 0 0 1 1.417-1.42 1.415 1.415 0 0 1 1.416 1.42 1.422 1.422 0 0 1-1.416 1.42zm0 6.533A1.415 1.415 0 0 1 0 15.08a1.422 1.422 0 0 1 1.417-1.42 1.415 1.415 0 0 1 1.416 1.42 1.422 1.422 0 0 1-1.416 1.42zm3.305-8.9H17v1.894H4.722V7.601zm0 6.628H17v1.893H4.722v-1.893z"/></symbol><symbol viewBox="0 0 12 17" id="man" xmlns="http://www.w3.org/2000/svg"><path d="M12 17h-1.5v-1.619a2.53 2.53 0 0 0-.659-1.717 2.17 2.17 0 0 0-1.591-.712h-4.5a2.17 2.17 0 0 0-1.591.712A2.53 2.53 0 0 0 1.5 15.38V17H0v-1.619c0-1.074.395-2.103 1.098-2.862.704-.76 1.657-1.186 2.652-1.186h4.5c.995 0 1.948.427 2.652 1.186A4.216 4.216 0 0 1 12 15.38V17zM6 9.714a4.215 4.215 0 0 1-1.722-.37 4.494 4.494 0 0 1-1.46-1.052 4.9 4.9 0 0 1-.975-1.576A5.194 5.194 0 0 1 1.5 4.857c0-.638.116-1.27.343-1.859a4.9 4.9 0 0 1 .975-1.575A4.494 4.494 0 0 1 4.278.37 4.215 4.215 0 0 1 6 0c1.193 0 2.338.512 3.182 1.423.844.91 1.318 2.146 1.318 3.434 0 1.288-.474 2.524-1.318 3.435-.844.91-1.989 1.422-3.182 1.422zm0-1.619c.796 0 1.559-.34 2.121-.948C8.684 6.54 9 5.716 9 4.857s-.316-1.682-.879-2.29A2.893 2.893 0 0 0 6 1.62c-.796 0-1.559.341-2.121.948A3.373 3.373 0 0 0 3 4.857c0 .859.316 1.683.879 2.29A2.893 2.893 0 0 0 6 8.095z"/></symbol><symbol viewBox="0 0 13 11" id="message" xmlns="http://www.w3.org/2000/svg"><path d="M.65 0h11.7c.172 0 .338.064.46.179.121.115.19.27.19.432v9.778a.593.593 0 0 1-.19.432.672.672 0 0 1-.46.179H.65a.672.672 0 0 1-.46-.179.593.593 0 0 1-.19-.432V.61C0 .45.068.294.19.18A.672.672 0 0 1 .65 0zM11.7 6.722H9.48a3.113 3.113 0 0 1-1.2 1.335c-.528.326-1.147.5-1.78.5a3.401 3.401 0 0 1-1.78-.5 3.113 3.113 0 0 1-1.2-1.335H1.3v3.056h10.4V6.722zm0-1.222V1.222H1.3V5.5h3.25c0 .486.205.953.571 1.296.366.344.862.537 1.379.537s1.013-.193 1.379-.537A1.78 1.78 0 0 0 8.45 5.5h3.25z"/></symbol><symbol viewBox="0 0 19 18" id="message-plus" xmlns="http://www.w3.org/2000/svg"><path d="M17.273 9h-1.727V3.814l-6.847 6.39-6.972-6.41V14.4h8.637v1.8h-9.5a.846.846 0 0 1-.611-.264A.92.92 0 0 1 0 15.3V.9A.92.92 0 0 1 .253.264.846.846 0 0 1 .863 0H16.41c.23 0 .449.095.61.264a.92.92 0 0 1 .254.636V9zM2.169 1.8l6.52 5.996L15.115 1.8H2.17zm14.24 11.7H19v1.8h-2.59V18h-1.728v-2.7H12.09v-1.8h2.59v-2.7h1.728v2.7z"/></symbol><symbol viewBox="0 0 16 16" id="minus" xmlns="http://www.w3.org/2000/svg"><rect x="2" y="7" width="12" height="2" rx="1"/></symbol><symbol viewBox="0 0 16 16" id="plus" xmlns="http://www.w3.org/2000/svg"><path d="M2 8a1 1 0 0 1 1-1h10a1 1 0 1 1 0 2H3a1 1 0 0 1-1-1z"/><path d="M8 2a1 1 0 0 1 1 1v10a1 1 0 1 1-2 0V3a1 1 0 0 1 1-1z"/></symbol><symbol viewBox="0 0 17 17" id="rectangles" xmlns="http://www.w3.org/2000/svg"><path d="M0 0h7.556v7.556H0V0zm0 9.444h7.556V17H0V9.444zM9.444 0H17v7.556H9.444V0zm0 9.444H17V17H9.444V9.444zm1.89-7.555v3.778h3.777V1.889h-3.778zm0 9.444v3.778h3.777v-3.778h-3.778zM1.888 1.89v3.778h3.778V1.889H1.889zm0 9.444v3.778h3.778v-3.778H1.889z"/></symbol></svg>